# xmcd
#
# Track frame offsets: 
#        150
#        19918
#        36215
#        60264
#        86348
#        107726
#        127254
#        146593
#        169090
#        196205
#        214240
#        237060
#        253405
#        273315
#
# Disc length: 3983 seconds
#
# Revision: 1
# Processed by: cddbd v1.5.2PL0 Copyright (c) Steve Scherf et al.
# Submitted via: ExactAudioCopyFreeDBPlugin 1.0
#
DISCID=c80f8d0e
DTITLE=Various Artist - Blues For Rainy Days
DYEAR=2011
DGENRE=Blues
TTITLE0=Ana Popovic - Love Fever
TTITLE1=Grayson Capps - El Guapo
TTITLE2=Son Seals - Love Had A Breakdown
TTITLE3=Blues Company - Cold Rain
TTITLE4=Larry Gamer - Where Blues Turn Black
TTITLE5=Eamon McCormack - My Saving Angel
TTITLE6=Chris Farlowe - The Thrill Is Gone
TTITLE7=Walter Trout - Through The Eyes Of Love
TTITLE8=Miller Anderson - Fog On The Highway
TTITLE9=Jackie Payne Steve Edmonson Band -  Warm Rain Fallin
TTITLE10=Samantha Fish - Louisiana Rain
TTITLE11=Cadillac Blues Band - Rainy Day
TTITLE12=Bobby Jones - Come In Out Of The Rain
TTITLE13=Jan Parker - Your Love Is My Home
EXTD=YEAR: 2011
EXTT0=
EXTT1=
EXTT2=
EXTT3=
EXTT4=
EXTT5=
EXTT6=
EXTT7=
EXTT8=
EXTT9=
EXTT10=
EXTT11=
EXTT12=
EXTT13=
PLAYORDER=
